<?xml version="1.0" standalone="no"?>
<!DOCTYPE svg PUBLIC "-//W3C//DTD SVG 20010904//EN"
 "http://www.w3.org/TR/2001/REC-SVG-20010904/DTD/svg10.dtd">
<svg version="1.0" xmlns="http://www.w3.org/2000/svg"
 width="700.000000pt" height="700.000000pt" viewBox="0 0 700.000000 700.000000"
 preserveAspectRatio="xMidYMid meet">
<metadata>
Created by potrace 1.14, written by Peter Selinger 2001-2017
</metadata>
<g transform="translate(0.000000,700.000000) scale(0.100000,-0.100000)"
fill="#000000" stroke="none">
<path d="M1019 6086 c-2 -3 -29 -7 -59 -9 -95 -9 -201 -28 -305 -53 -115 -28
-292 -87 -307 -102 -17 -17 8 -24 49 -13 146 38 437 40 646 6 214 -35 425
-103 586 -188 229 -120 601 -431 828 -692 82 -95 318 -412 762 -1025 206 -283
388 -534 405 -556 17 -23 38 -52 46 -64 8 -12 42 -59 75 -104 33 -45 74 -100
90 -124 17 -23 41 -57 55 -76 14 -18 135 -186 270 -372 134 -187 248 -343 252
-349 5 -5 49 -64 100 -130 78 -102 198 -253 233 -291 5 -6 42 -47 82 -91 102
-113 287 -291 324 -313 14 -8 16 159 16 1836 l0 1844 -239 0 -238 0 -1 -22 c0
-13 -1 -443 -1 -956 0 -513 -4 -930 -9 -925 -4 4 -100 132 -213 283 -113 151
-209 280 -214 285 -33 41 -193 258 -382 520 -235 326 -323 444 -378 510 -147
175 -296 324 -447 450 -33 28 -62 53 -65 56 -13 15 -205 151 -295 209 -119 77
-368 206 -480 250 -44 17 -89 35 -100 40 -114 52 -377 116 -630 155 -46 7
-450 16 -456 11z"/>
<path d="M1865 3370 l0 -1840 240 0 240 0 0 955 c0 725 3 951 12 942 6 -7 37
-49 70 -93 360 -503 697 -961 877 -1194 128 -166 151 -195 156 -200 3 -3 48
-54 100 -115 91 -105 365 -386 460 -471 25 -22 81 -67 125 -100 478 -357 1080
-556 1685 -558 97 0 290 11 311 18 8 3 37 7 64 10 164 17 485 111 485 143 0 9
-6 12 -17 9 -119 -35 -435 -52 -633 -33 -185 18 -471 97 -621 172 -267 134
-608 425 -903 769 -27 31 -58 69 -70 84 -11 15 -23 29 -26 32 -3 3 -19 23 -35
45 -17 22 -33 42 -36 45 -22 18 -707 950 -894 1215 -27 39 -53 75 -58 80 -8 9
-76 104 -186 260 -42 58 -351 489 -414 575 -223 308 -484 641 -627 800 -96
108 -282 290 -295 290 -7 0 -10 -620 -10 -1840z"/>
</g>
</svg>
