<svg xmlns="http://www.w3.org/2000/svg" xml:space="preserve" id="Layer_1" x="0" y="0" style="enable-background:new 0 0 459 195" version="1.1" viewBox="0 0 459 195"><style>.st8{fill:#2ca0ff}.st9{fill:#dc4dff}.st13{fill:#fff}</style><defs><filter id="Adobe_OpacityMaskFilter" width="483.8" height="177" x="0" y="0" filterUnits="userSpaceOnUse"><feColorMatrix values="1 0 0 0 0 0 1 0 0 0 0 0 1 0 0 0 0 0 1 0"/></filter></defs><mask id="a" width="483.8" height="177" x="0" y="0" maskUnits="userSpaceOnUse"><path d="M0 194.8V0h483.8v194.8H0z" style="fill:#fff;filter:url(#Adobe_OpacityMaskFilter)"/></mask><g style="mask:url(#a)"><defs><filter id="Adobe_OpacityMaskFilter_1_" width="227.6" height="61.4" x="102.8" y="115.6" filterUnits="userSpaceOnUse"><feColorMatrix values="1 0 0 0 0 0 1 0 0 0 0 0 1 0 0 0 0 0 1 0"/></filter></defs><mask id="b" width="227.6" height="61.4" x="102.8" y="115.6" maskUnits="userSpaceOnUse"><path d="M0 194.8V0h483.8v194.8H0z" style="fill:#fff;filter:url(#Adobe_OpacityMaskFilter_1_)"/></mask><g style="opacity:.2;mask:url(#b)"><defs><filter id="Adobe_OpacityMaskFilter_2_" width="227.6" height="61.4" x="102.8" y="115.6" filterUnits="userSpaceOnUse"><feColorMatrix values="1 0 0 0 0 0 1 0 0 0 0 0 1 0 0 0 0 0 1 0"/></filter></defs><mask id="c" width="227.6" height="61.4" x="102.8" y="115.6" maskUnits="userSpaceOnUse"><path d="M102.8 177v-61.4h227.6V177H102.8z" style="fill:#fff;filter:url(#Adobe_OpacityMaskFilter_2_)"/></mask><g style="mask:url(#c)"><path d="M256.7 168.9c-9.4 0-16-6.4-16.1-15.6h2.2c.1 8.1 5.6 13.5 13.9 13.5 8.1 0 13.8-4.8 13.8-11.6 0-8.6-5.7-10.8-14.9-13.7-3.7-1.1-9.8-2.9-9.8-9.7 0-5.5 4.2-9.2 10.5-9.2 7.1 0 11.8 4.7 11.8 11.8H266c0-5.9-3.7-9.6-9.7-9.6-5.1 0-8.4 2.8-8.4 7 0 4.8 3.7 6.3 8.3 7.6 8.5 2.7 16.4 5.2 16.4 15.8 0 7.9-6.7 13.7-15.9 13.7m-78-1.7-.2-2.2c10.4-1.1 18.3-9.8 18.3-20.3 0-11.3-9.2-20.4-20.4-20.4s-20.4 9.2-20.4 20.4c0 10.1 7.2 18.6 17.2 20.2l-.3 2.1c-11-1.8-19-11.1-19-22.3 0-12.5 10.1-22.6 22.6-22.6s22.6 10.1 22.6 22.6c-.2 11.6-8.9 21.3-20.4 22.5m120.9 0-.2-2.2c10.4-1.1 18.3-9.8 18.3-20.3 0-11.3-9.2-20.4-20.4-20.4s-20.4 9.2-20.4 20.4c0 10.1 7.2 18.6 17.2 20.2l-.3 2.1c-11-1.8-19-11.1-19-22.3 0-12.5 10.1-22.6 22.6-22.6 12.5 0 22.6 10.1 22.6 22.6-.2 11.6-8.9 21.3-20.4 22.5m-163.6.1c-12.5 0-22.6-10.1-22.6-22.6 0-12.5 10.1-22.6 22.6-22.6 5.5 0 10.9 2 15 5.7l-1.4 1.6c-3.7-3.3-8.6-5.1-13.6-5.1-11.3 0-20.4 9.2-20.4 20.4 0 11.3 9.2 20.4 20.4 20.4 5 0 9.8-1.8 13.6-5.1l1.4 1.6c-4.2 3.7-9.5 5.7-15 5.7m98.2 2.8L208 127v39.2h-2.2v-46.9l26.2 43V125h2.2v45.1z"/><path d="M330.4 177H109.2v-2.2h219.1v-57.1H105v58.1h-2.2v-60.3h227.6V177z"/></g></g><defs><filter id="Adobe_OpacityMaskFilter_3_" width="483.8" height="102" x="0" y="0" filterUnits="userSpaceOnUse"><feColorMatrix values="1 0 0 0 0 0 1 0 0 0 0 0 1 0 0 0 0 0 1 0"/></filter></defs><mask id="d" width="483.8" height="102" x="0" y="0" maskUnits="userSpaceOnUse"><path d="m158.3 43.8.8 1h-2v2.8c-2-2.2-3.9-4.5-5.9-6.7l-.1-.1-26.9-1.3h-.2l-.1.1c-10.6 10-13.1 12.5-13.6 13.2-3.5 4.2-5.5 9.6-5.5 15.2L98 73.8l-17.9-8.4-3.1-3.6c1.8-3.6 5.2-5.8 9.1-5.8 3.7 0 6.7 1.6 9.7 5.2l.2.3 20.7-19.2-4.2-3.4-30.6-.4h-.1l-.1.1C70.3 49.4 67.7 52 67.2 52.8 63.8 57 62 62.2 62 67.9v.1c0 13.6 10.2 23.9 23.8 23.9 8.9 0 15.1-3.2 20.3-10.4l1.9-1.8c4.3 7.6 12.4 12.1 21.7 12.1 5.4 0 10.4-1.5 14.7-4.5l12.7-12.1V91h13.2v-.3l10.8-11.3 8.1 11.6h11.6v-.1c.2-.1.8-.7 4.3-4.2 5.1 3.3 11.3 5 18 5 5.5 0 10.2-1.4 13.5-3.9v.1l.4-.4c.8-.7 1.5-1.4 2.1-2.3L244 80l-.1 11H281.6l2.8-2.9V91H297l1.2-.1v-.2c.3-.4 2.3-2.6 3.8-4.3V91h34.6l3.8-3.3c4.8 2.7 10.5 4.1 16.6 4.1 4.9 0 9.1-1.1 12.3-3.1 1.8-1.2 3.3-2.6 4.3-4.3l9.6-9.6-3-1.5-4.5 1.9c-.1-.8-.2-1.5-.4-2.3.2-.1.3-.2.4-.3.2-.4.8-1.2 1.4-2 1.9-2.6 2.8-3.9 2.4-4.5-.5-.7-3.8-5.6-3.8-5.6l-4-5.9 2.2-3.1.9-.6 4.3-2.6v-.2c.6-3.1 1-6.8.2-7.3s-8.8-2.8-9.7-3l-16.1-.3-14.1 14.1-.1.1c-1.3 2.2-2 4.7-2 7.4V59c0 8.3 5.8 11.5 13.1 13.5-2.2-.1-3.8-.2-3.8-.2h-.1l-3.5 2.9c-1.1-.7-1.3-.8-1.5-.8H335.1c-.5.2-4.4 1.9-5.2 2.6-.3.3-.4 1-.1 2.1h-14.7V50.3l2.6-3.1-4.3-13.2-12.1 11.6.6.6v31.2l-4.3-.8V50.3c3.7-1.8 3.8-2.1 3.9-2.4.1-.5-1.7-5-5.3-13.5l-.2-.4-7.9 7.3c-2.3-1.9-2.8-2.2-3.1-2.3-.9-.4-7.4-.1-8.7 0h-.2l-2.6 4.3-1.5-1.5-8.4-6.1c-.9-1.1-6.3-1.5-8-1.5h-.2L244 44.7c-2.2-5.6-2.4-5.8-2.5-5.9-.1-.1-.4-.4-21-1.9h-.2l-12 11.2c-.6-1-1.1-5.7-1.4-8.4-.5-4.6-.6-5.2-1.1-5.2-.1 0-.3 0-.4.2l-6.3-.6L187.8 45l-.3.1v.2l-1.9 1.9-16.8-13.3-.3-.2c.1-.2-10.2 10.1-10.2 10.1z" style="fill:#fff;filter:url(#Adobe_OpacityMaskFilter_3_)"/></mask><g style="mask:url(#d)"><path d="m154.6 93.6 14.3-14.1V31.2l-12.5 13.3c0 .1-1.8 49.1-1.8 49.1zM199 33s-12.8 12-13.1 12.6L199 59.7V33zM74.2 50.9c.6-5.7 7.7-13.6 7.7-13.6S58.7 46.4 57 48c-1.8 1.6-6.4 8-8.9 10.5s-.9 19.8-1.2 21.5C46.6 81.6 70 92.4 70 92.4L85.1 77c-9-6.9-11.6-20.4-10.9-26.1m38-.8-5.4-3.8c-1.1 0-3.4-1.1-3.4-1.1L88.5 61s6.2 5 6.6 4.5c.5-.5 12.1-8.5 12.1-8.5l5-6.9z" class="st8"/><path d="M123.7 39.5c-.6.6-15.4 13.7-15.4 13.7l-5.7 7.5-1.2 8 7.9 6.2 3.3.6-4.8 4.1 4.2 12.1s7.1-2.1 7.2-2l12.7-12.9s-7.9-18.5-8-20.4c-.1-1.8-.2-16.9-.2-16.9m96.8 22.4 5.6-4.4s-3.8-8-3.8-8.8c0-.8-3.8-12.2-3.8-12.2l-8.5 7.7V74l.9-1v6.2l-8.1 8 8 5L226 76.5l-11.7-7.6 6.2-7zm-38.9 18.3 5.4 12.9s13.5-13.5 14-13.6l-19.4-25.2v25.9zm68.9-41.8-5.5 9.5-4.4 4.3s10.4 2.6 11.7 12.3c1.2 9-8.2 14.7-8.2 14.7l-2.4 15 13.9-14.5 1.7-2-1.7-44.2c0-.1-5.1 4.9-5.1 4.9zm42.2-.3v6.4l-.5.3s-6.3 6.2-6.1 6.2c.2 0 4.3.4 4.3.4v10.2l-2.7.4-6.2 6.4 11.5.2v10.7l-12.1 12.6s2.4.5 2.6.4c.1-.1 13.4-13 13.4-13l-.4-45.3-3.8 4.1zm16 .8.2 40.7-6.9 7-1.5 5.9s.7 1.3.8 1.2c.1-.2.8-2.8.8-2.8l12-11.8-.3-45-5.1 4.8zm41.4 12.5c-.2-6 2.1-12.8 2.1-12.8L336 53.4l-1.3 8.4.5 2.4 5.1 4h8s-.2 3.1 0 2.8l5.8-6.9s2.6 1.8 2.6 1.9c.1 0 4.8-5.3 4.8-5.3s-11.2-3.3-11.4-9.3m-.8 22.9c-.7.3-.4 5.4-.4 5.4l-8.8 7.9.5 4.7s4.4.3 4.6.4c.2.1 13.7-13.7 13.7-13.7l-9.3-5.1-.3.4z" class="st8"/><path d="M39.7 96.1V25h364.8v71.1H39.7z" class="st9"/><path d="m154.6 93.6 14.3-14.1V31.2l-12.5 13.3c0 .1-1.8 49.1-1.8 49.1zM199 33s-12.8 12-13.1 12.6L199 59.7V33zM74.2 50.9c.6-5.7 7.7-13.6 7.7-13.6S58.7 46.4 57 48c-1.8 1.6-6.4 8-8.9 10.5s-.9 19.8-1.2 21.5C46.6 81.6 70 92.4 70 92.4L85.1 77c-9-6.9-11.6-20.4-10.9-26.1m38-.8-5.4-3.8c-1.1 0-3.4-1.1-3.4-1.1L88.5 61s6.2 5 6.6 4.5c.5-.5 12.1-8.5 12.1-8.5l5-6.9z" class="st8"/><path d="M123.7 39.5c-.6.6-15.4 13.7-15.4 13.7l-5.7 7.5-1.2 8 7.9 6.2 3.3.6-4.8 4.1 4.2 12.1s7.1-2.1 7.2-2l12.7-12.9s-7.9-18.5-8-20.4c-.1-1.8-.2-16.9-.2-16.9m96.8 22.4 5.6-4.4s-3.8-8-3.8-8.8c0-.8-3.8-12.2-3.8-12.2l-8.5 7.7V74l.9-1v6.2l-8.1 8 8 5L226 76.5l-11.7-7.6 6.2-7zm-38.9 18.3 5.4 12.9s13.5-13.5 14-13.6l-19.4-25.2v25.9zm68.9-41.8-5.5 9.5-4.4 4.3s10.4 2.6 11.7 12.3c1.2 9-8.2 14.7-8.2 14.7l-2.4 15 13.9-14.5 1.7-2-1.7-44.2c0-.1-5.1 4.9-5.1 4.9zm42.2-.3v6.4l-.5.3s-6.3 6.2-6.1 6.2c.2 0 4.3.4 4.3.4v10.2l-2.7.4-6.2 6.4 11.5.2v10.7l-12.1 12.6s2.4.5 2.6.4c.1-.1 13.4-13 13.4-13l-.4-45.3-3.8 4.1zm16 .8.2 40.7-6.9 7-1.5 5.9s.7 1.3.8 1.2c.1-.2.8-2.8.8-2.8l12-11.8-.3-45-5.1 4.8zm41.4 12.5c-.2-6 2.1-12.8 2.1-12.8L336 53.4l-1.3 8.4.5 2.4 5.1 4h8s-.2 3.1 0 2.8l5.8-6.9s2.6 1.8 2.6 1.9c.1 0 4.8-5.3 4.8-5.3s-11.2-3.3-11.4-9.3m-.8 22.9c-.7.3-.4 5.4-.4 5.4l-8.8 7.9.5 4.7s4.4.3 4.6.4c.2.1 13.7-13.7 13.7-13.7l-9.3-5.1-.3.4z" class="st8"/><path d="M101.6 1.9 101 1l-.5-1C98.6 1 23.1 77.2 0 100.5l1.5 1.5C35 68.2 99.1 3.7 101.6 1.9m6.7 0-.6-.9-.5-1C105.3 1 29.8 77.2 6.7 100.5l1.5 1.5C41.7 68.2 105.8 3.7 108.3 1.9m6.7 0-.6-.9-.4-1c-2 1-77.5 77.2-100.6 100.5l1.5 1.5C48.4 68.2 112.5 3.7 115 1.9m6.7 0-.5-.9-.5-1c-1.9 1-77.5 77.2-100.6 100.5l1.5 1.5C55.2 68.2 119.2 3.7 121.7 1.9m6.7 0-.5-.9-.5-1c-1.9 1-77.5 77.2-100.6 100.5l1.5 1.5C61.9 68.2 125.9 3.7 128.4 1.9m6.7 0-.5-.9-.5-1c-1.9 1-77.5 77.2-100.6 100.5L35 102C68.6 68.2 132.6 3.7 135.1 1.9m6.7 0-.5-.9-.5-1c-1.9 1-77.5 77.2-100.6 100.5l1.5 1.5C75.3 68.2 139.3 3.7 141.8 1.9m6.7 0L148 1l-.5-1C145.6 1 70 77.2 46.9 100.5l1.5 1.5C82 68.2 146 3.7 148.5 1.9m6.8 0-.6-.9-.5-1c-1.9 1-77.5 77.2-100.6 100.5l1.5 1.5C88.7 68.2 152.7 3.7 155.3 1.9m6.7 0-.6-.9-.5-1C159 1 83.4 77.2 60.3 100.5l1.5 1.5C95.4 68.2 159.4 3.7 162 1.9m6.7 0-.6-.9-.5-1C165.7 1 90.1 77.2 67 100.5l1.5 1.5C102.1 68.2 166.1 3.7 168.7 1.9m6.7 0-.6-.9-.5-1c-1.9 1-77.5 77.2-100.6 100.5l1.5 1.5C108.8 68.2 172.8 3.7 175.4 1.9m6.7 0-.6-.9-.5-1c-1.9 1-77.5 77.2-100.6 100.5L82 102C115.5 68.2 179.5 3.7 182.1 1.9m6.7 0-.6-.9-.5-1c-1.9 1-77.5 77.2-100.6 100.5l1.5 1.5C122.2 68.2 186.2 3.7 188.8 1.9m6.7 0-.6-.9-.5-1C192.5 1 117 77.2 93.9 100.5l1.5 1.5C128.9 68.2 192.9 3.7 195.5 1.9m6.7 0-.6-.9-.5-1c-1.9 1-77.5 77.2-100.6 100.5l1.5 1.5C135.6 68.2 199.6 3.7 202.2 1.9m6.7 0-.6-.9-.5-1c-1.9 1-77.5 77.2-100.6 100.5l1.5 1.5C142.3 68.2 206.3 3.7 208.9 1.9m6.7 0L215 1l-.5-1c-1.9 1-77.5 77.2-100.6 100.5l1.5 1.5C149 68.2 213 3.7 215.6 1.9m6.7 0-.6-.9-.5-1c-1.9 1-77.5 77.2-100.6 100.5l1.5 1.5C155.7 68.2 219.7 3.7 222.3 1.9m6.7 0-.6-.9-.5-1c-1.9 1-77.5 77.2-100.6 100.5l1.5 1.5C162.4 68.2 226.4 3.7 229 1.9m6.7 0-.6-.9-.5-1c-1.9 1-77.5 77.2-100.6 100.5l1.5 1.5C169.1 68.2 233.1 3.7 235.7 1.9m6.7 0-.6-.9-.5-1c-1.9 1-77.5 77.2-100.6 100.5l1.5 1.5C175.8 68.2 239.9 3.7 242.4 1.9m6.7 0-.6-.9-.5-1c-1.9 1-77.5 77.2-100.6 100.5l1.5 1.5C182.5 68.2 246.6 3.7 249.1 1.9m6.7 0-.6-.9-.5-1c-1.9 1-77.5 77.2-100.6 100.5l1.5 1.5C189.2 68.2 253.3 3.7 255.8 1.9m6.7 0L262 1l-.5-1c-1.9 1-77.5 77.2-100.6 100.5l1.5 1.5C195.9 68.2 260 3.7 262.5 1.9m6.7 0-.5-.9-.5-1c-1.9 1-77.5 77.2-100.6 100.5l1.5 1.5C202.6 68.2 266.7 3.7 269.2 1.9m6.7 0-.5-.9-.5-1c-1.9 1-77.5 77.2-100.6 100.5l1.5 1.5C209.4 68.2 273.4 3.7 275.9 1.9m6.7 0-.5-.9-.5-1c-1.9 1-77.5 77.2-100.6 100.5l1.5 1.5C216.1 68.2 280.1 3.7 282.6 1.9m6.7 0-.5-.9-.5-1c-1.9 1-77.5 77.2-100.6 100.5l1.5 1.5C222.8 68.2 286.8 3.7 289.3 1.9m6.7 0-.5-.9-.5-1c-1.9 1-77.5 77.2-100.6 100.5l1.5 1.5C229.5 68.2 293.5 3.7 296 1.9m6.8 0-.6-.9-.5-1c-1.9 1-77.5 77.2-100.6 100.5l1.5 1.5C236.2 68.2 300.2 3.7 302.8 1.9m6.7 0-.6-.9-.5-1c-1.9 1-77.5 77.2-100.6 100.5l1.5 1.5C242.9 68.2 306.9 3.7 309.5 1.9m6.7 0-.6-.9-.5-1c-1.9 1-77.5 77.2-100.6 100.5l1.5 1.5C249.6 68.2 313.6 3.7 316.2 1.9m6.7 0-.6-.9-.5-1c-1.9 1-77.5 77.2-100.6 100.5l1.5 1.5C256.3 68.2 320.3 3.7 322.9 1.9m6.7 0L329 1l-.5-1c-1.9 1-77.5 77.2-100.6 100.5l1.5 1.5C263 68.2 327 3.7 329.6 1.9m6.7 0-.6-.9-.5-1c-1.9 1-77.5 77.2-100.6 100.5l1.5 1.5C269.7 68.2 333.7 3.7 336.3 1.9m6.7 0-.6-.9-.5-1c-1.9 1-77.5 77.2-100.6 100.5l1.5 1.5C276.4 68.2 340.4 3.7 343 1.9m6.7 0-.6-.9-.5-1c-1.9 1-77.5 77.2-100.6 100.5l1.5 1.5C283.1 68.2 347.1 3.7 349.7 1.9m6.7 0-.6-.9-.5-1c-1.9 1-77.5 77.2-100.6 100.5l1.5 1.5C289.8 68.2 353.8 3.7 356.4 1.9m6.7 0-.6-.9-.5-1c-1.9 1-77.5 77.2-100.6 100.5l1.5 1.5C296.5 68.2 360.5 3.7 363.1 1.9m6.7 0-.6-.9-.5-1c-1.9 1-77.5 77.2-100.6 100.5l1.5 1.5C303.2 68.2 367.2 3.7 369.8 1.9m6.7 0-.6-.9-.5-1c-1.9 1-77.5 77.2-100.6 100.5l1.5 1.5C309.9 68.2 373.9 3.7 376.5 1.9m6.7 0-.6-.9-.5-1c-1.9 1-77.5 77.2-100.6 100.5l1.5 1.5C316.6 68.2 380.7 3.7 383.2 1.9m6.7 0-.6-.9-.5-1c-1.9 1-77.5 77.2-100.6 100.5l1.5 1.5C323.3 68.2 387.4 3.7 389.9 1.9m6.7 0L396 1l-.5-1c-1.9 1-77.5 77.2-100.6 100.5l1.5 1.5C330 68.2 394.1 3.7 396.6 1.9m6.7 0-.6-.9-.5-1c-1.9 1-77.5 77.2-100.6 100.5l1.5 1.5C336.7 68.2 400.8 3.7 403.3 1.9m6.7 0-.6-.9-.4-1c-1.9 1-77.5 77.2-100.6 100.5l1.5 1.5C343.4 68.2 407.5 3.7 410 1.9m6.7 0-.6-.9-.5-1c-1.9 1-77.5 77.2-100.6 100.5l1.5 1.5C350.1 68.2 414.2 3.7 416.7 1.9m6.7 0-.5-.9-.5-1c-1.9 1-77.5 77.2-100.6 100.5l1.5 1.5C356.9 68.2 420.9 3.7 423.4 1.9m6.7 0-.5-.9-.5-1c-1.9 1-77.5 77.2-100.6 100.5l1.5 1.5C363.6 68.2 427.6 3.7 430.1 1.9m6.7 0-.5-.9-.5-1c-1.9 1-77.5 77.2-100.6 100.5l1.5 1.5C370.3 68.2 434.3 3.7 436.8 1.9m6.7 0L443 1l-.5-1c-1.9 1-77.5 77.2-100.6 100.5l1.5 1.5C377 68.2 441 3.7 443.5 1.9m6.7 0-.5-.9-.5-1c-1.9 1-77.5 77.2-100.6 100.5l1.5 1.5C383.7 68.2 447.7 3.7 450.2 1.9m6.8 0-.6-.9-.5-1c-1.9 1-77.5 77.2-100.6 100.5l1.5 1.5C390.4 68.2 454.4 3.7 457 1.9m6.7 0-.6-.9-.5-1c-1.9 1-77.5 77.2-100.6 100.5l1.5 1.5C397.1 68.2 461.1 3.7 463.7 1.9m6.7 0-.6-.9-.5-1c-1.9 1-77.5 77.2-100.6 100.5l1.5 1.5C403.8 68.2 467.8 3.7 470.4 1.9m6.7 0-.6-.9-.5-1c-1.9 1-77.5 77.2-100.6 100.5l1.5 1.5C410.5 68.2 474.5 3.7 477.1 1.9m6.1-.9-.5-1c-1.9 1-77.5 77.2-100.6 100.5l1.5 1.5C417.2 68.2 481.2 3.7 483.8 1.9l-.6-.9z" style="fill:#103a77"/></g><defs><filter id="Adobe_OpacityMaskFilter_4_" width="313.1" height="135.8" x="73.8" y="32.9" filterUnits="userSpaceOnUse"><feColorMatrix values="1 0 0 0 0 0 1 0 0 0 0 0 1 0 0 0 0 0 1 0"/></filter></defs><mask id="e" width="313.1" height="135.8" x="73.8" y="32.9" maskUnits="userSpaceOnUse"><path d="M0 194.8V0h483.8v194.8H0z" style="fill:#fff;filter:url(#Adobe_OpacityMaskFilter_4_)"/></mask><g style="mask:url(#e)"><path d="M73.8 56.6v-.1c0-13.2 10.1-23.6 23.9-23.6 9.3 0 15.3 3.9 19.3 9.4l-9.5 7.3c-2.6-3.2-5.6-5.3-9.9-5.3-6.4 0-10.8 5.5-10.8 12.1v.1c0 6.8 4.5 12.1 10.8 12.1 4.7 0 7.5-2.2 10.3-5.5l9.5 6.8c-4.3 5.9-10.1 10.3-20.1 10.3-13.1-.1-23.5-10-23.5-23.6" class="st13"/><path d="M152.7 56.6v-.1c0-6.6-4.7-12.3-11.6-12.3-6.9 0-11.6 5.6-11.6 12.1v.1c0 6.6 4.7 12.3 11.7 12.3 6.9.1 11.5-5.5 11.5-12.1m-36 0v-.1c0-13 10.5-23.6 24.5-23.6s24.4 10.5 24.4 23.5v.1c0 13-10.5 23.6-24.5 23.6s-24.4-10.4-24.4-23.5m52.2-22.8h11.8l18.7 24v-24h12.5v45.4h-11l-19.5-24.9v24.9h-12.5V33.8zm44.3 38.7 7-8.4c4.5 3.6 9.5 5.5 14.7 5.5 3.4 0 5.3-1.2 5.3-3.1v-.1c0-1.9-1.5-2.9-7.7-4.4-9.7-2.2-17.1-4.9-17.1-14.2v-.1c0-8.4 6.7-14.5 17.6-14.5 7.7 0 13.8 2.1 18.7 6l-6.3 8.9c-4.2-3-8.7-4.5-12.7-4.5-3.1 0-4.5 1.2-4.5 2.9v.1c0 2.1 1.6 3 7.9 4.4 10.4 2.3 16.9 5.6 16.9 14.2v.1c0 9.3-7.3 14.8-18.4 14.8-8.2-.1-15.8-2.6-21.4-7.6m42.5-38.7h36.6v10.6h-24.1v6.9H290v9.9h-21.8v7.2h24.4v10.7h-36.9V33.8zm40.4 45.4V33.8h12.6v45.4h-12.6zm17.7-45.4h12.6v34.4h22v11h-34.6V33.8z" class="st13"/><path d="m347.2 72.5 7-8.4c4.5 3.6 9.5 5.5 14.7 5.5 3.4 0 5.3-1.2 5.3-3.1v-.1c0-1.9-1.5-2.9-7.7-4.4-9.7-2.2-17.1-4.9-17.1-14.2v-.1c0-8.4 6.7-14.5 17.6-14.5 7.7 0 13.8 2.1 18.7 6l-6.3 8.9c-4.2-3-8.7-4.5-12.7-4.5-3.1 0-4.5 1.2-4.5 2.9v.1c0 2.1 1.6 3 7.9 4.4 10.4 2.3 16.9 5.6 16.9 14.2v.1c0 9.3-7.3 14.8-18.4 14.8-8.2-.1-15.8-2.6-21.4-7.6" class="st13"/><path d="M266.3 160.6c-9.4 0-16-6.4-16.1-15.6 0-.6.5-1.1 1.1-1.1.6 0 1.1.5 1.1 1.1.1 8.1 5.6 13.5 13.9 13.5 8.1 0 13.8-4.8 13.8-11.6 0-8.6-5.7-10.8-14.9-13.7-3.7-1.1-9.8-2.9-9.8-9.7 0-5.5 4.2-9.2 10.5-9.2 7.1 0 11.8 4.7 11.8 11.8 0 .6-.5 1.1-1.1 1-.6 0-1-.5-1-1 0-5.9-3.7-9.6-9.7-9.6-5.1 0-8.4 2.8-8.4 7 0 4.8 3.7 6.3 8.3 7.6 8.5 2.7 16.4 5.2 16.4 15.8.1 7.9-6.6 13.7-15.9 13.7m-78.1-1.7c-.6 0-1.1-.5-1.1-1.1 0-.5.4-1 1-1.1 10.4-1.1 18.3-9.8 18.3-20.3 0-11.3-9.2-20.4-20.4-20.4s-20.4 9.2-20.4 20.4c0 10.1 7.2 18.6 17.2 20.2.6.1 1 .6.9 1.2s-.6 1-1.2.9c-11-1.8-19-11.1-19-22.3 0-12.5 10.1-22.6 22.6-22.6 12.5 0 22.6 10.1 22.6 22.6 0 11.6-8.7 21.3-20.2 22.5h-.3m120.9 0c-.6 0-1.1-.5-1.1-1.1 0-.6.4-1 1-1.1 10.4-1.1 18.3-9.8 18.3-20.3 0-11.3-9.2-20.4-20.4-20.4-11.3 0-20.4 9.2-20.4 20.4 0 10.1 7.2 18.6 17.2 20.2.6.1 1 .7.8 1.3-.1.6-.6.9-1.2.9-11-1.8-19-11.1-19-22.3 0-12.5 10.1-22.6 22.6-22.6 12.5 0 22.6 10.1 22.6 22.6 0 11.6-8.7 21.3-20.2 22.5-.1-.1-.1-.1-.2-.1m-163.5.1c-12.5 0-22.6-10.1-22.6-22.6 0-12.5 10.1-22.6 22.6-22.6 5.5 0 10.9 2 15 5.7.4.4.5 1.1.1 1.5-.4.4-1.1.5-1.5.1-3.7-3.3-8.6-5.1-13.6-5.1-11.3 0-20.4 9.2-20.4 20.4s9.2 20.4 20.4 20.4c5 0 9.8-1.8 13.6-5.1.4-.4 1.1-.4 1.5.1.4.4.4 1.1-.1 1.5-4.1 3.7-9.5 5.7-15 5.7m97.2 0c-.4 0-.7-.2-.9-.5l-24.2-39.8v39.2c0 .6-.5 1.1-1.1 1-.6 0-1-.5-1-1v-43c0-.6.5-1.1 1.1-1.1.4 0 .7.2.9.5l24.2 39.8v-37.4c0-.6.5-1.1 1.1-1 .6 0 1 .5 1 1V158c0 .5-.5 1-1.1 1" class="st9"/><path d="M339 168.7H118.8c-.6 0-1.1-.5-1-1.1 0-.6.5-1 1-1h219.1v-57.1H114.6v58.1c0 .6-.5 1.1-1.1 1.1s-1.1-.5-1.1-1.1v-59.2c0-.6.5-1.1 1.1-1.1H339c.6 0 1.1.5 1.1 1.1v59.2c-.1.6-.6 1.1-1.1 1.1" class="st9"/></g></g></svg>