<svg xmlns="http://www.w3.org/2000/svg" xml:space="preserve" style="enable-background:new 0 0 22.4 22.4" viewBox="0 0 22.4 22.4"><path d="M18.3 19.7c-1.1-.4-2.6-1.7-3.6-2.9-1-1.1-4.8-6.4-5.3-7.1-1.3-1.8-2.6-3.8-4-5v12.9h1.7V11l1.4 2c.6.8 1.6 2.1 2.2 3 .5.6 1.5 1.7 2 2.2 2.4 2.3 6.5 3.2 9.7 2V20c-.4.1-.9.1-1.2.1-.9.1-1.8-.1-2.9-.4zM7.7 5.6c1.1 1.4 5.2 7 5.2 7.1 1.3 1.8 2.6 3.8 4.1 4.9V4.7h-1.7v6.7l-1.5-2c-.7-.9-1.8-2.4-2.2-3-.7-1-1.6-2-2.6-2.8C6.4 1.8 3.1 1 0 2.3v.1c1.3-.3 2.9-.1 4.1.4 1.1.4 2.7 1.7 3.6 2.8z"/></svg>